<svg xmlns="http://www.w3.org/2000/svg" width="240" height="240" viewBox="0 0 240 240"><g transform="translate(0 0)"><path d="M-4,90a120.885,120.885,0,0,1-24.184-2.438A119.4,119.4,0,0,1-50.709,80.57,120.007,120.007,0,0,1-71.093,69.506a120.861,120.861,0,0,1-17.76-14.653,120.863,120.863,0,0,1-14.653-17.76A120.011,120.011,0,0,1-114.57,16.71a119.4,119.4,0,0,1-6.992-22.525A120.887,120.887,0,0,1-124-30a120.887,120.887,0,0,1,2.438-24.184,119.4,119.4,0,0,1,6.992-22.525,120.015,120.015,0,0,1,11.064-20.384,120.863,120.863,0,0,1,14.653-17.76,120.863,120.863,0,0,1,17.76-14.653A120.015,120.015,0,0,1-50.709-140.57a119.4,119.4,0,0,1,22.525-6.992A120.887,120.887,0,0,1-4-150a120.887,120.887,0,0,1,24.184,2.438A119.4,119.4,0,0,1,42.71-140.57a120.012,120.012,0,0,1,20.384,11.064,120.864,120.864,0,0,1,17.76,14.653,120.861,120.861,0,0,1,14.653,17.76A120.007,120.007,0,0,1,106.57-76.709a119.4,119.4,0,0,1,6.992,22.525A120.885,120.885,0,0,1,116-30a120.885,120.885,0,0,1-2.438,24.184A119.4,119.4,0,0,1,106.57,16.71,120.009,120.009,0,0,1,95.506,37.093a120.859,120.859,0,0,1-14.653,17.76,120.859,120.859,0,0,1-17.76,14.653A120.009,120.009,0,0,1,42.71,80.57a119.4,119.4,0,0,1-22.525,6.992A120.885,120.885,0,0,1-4,90ZM19.646-48.081h0a1.04,1.04,0,0,1,.931.4c.351.526.2,1.578-.438,3.127-6.791,7.427-14.208,14.13-21.38,20.612-4.857,4.39-9.879,8.929-14.71,13.69-2.583,2.1-5.676,5.928-5.892,9.81A6.722,6.722,0,0,0-19.815,4.83c10.844,7.592,22.037,15.12,32.861,22.4,3.523,2.369,7.165,4.819,10.763,7.249a9.725,9.725,0,0,0,6.133,2.129,10.9,10.9,0,0,0,10.733-8.767q.879-5.158,1.762-10.316c3.24-18.944,6.591-38.533,9.5-57.859.4-3.027.85-6.1,1.291-9.079a221.557,221.557,0,0,0,2.512-22.053c-.433-3.643-2.853-5.49-7.19-5.49a25.748,25.748,0,0,0-7.575,1.4C13.644-65.15-12.764-54.163-34.991-44.788-37.84-43.526-40.785-42.24-43.633-41-55.618-35.763-68.011-30.352-79.309-24.13c-1.522,1.114-2.193,2.176-2.053,3.245.355,2.71,5.943,4.887,11.347,6.993,1.146.446,2.327.907,3.413,1.356.905.278,1.8.564,2.755.868C-58.619-10-53.213-8.28-47.864-8.28a18.707,18.707,0,0,0,9.258-2.247c13.039-7.49,25.546-16.292,37.641-24.8C3-38.122,7.1-41.007,11.156-43.8c.185-.119.394-.254.622-.4l.018-.012C13.88-45.566,17.76-48.081,19.646-48.081Z" transform="translate(124 150)"/></g></svg>