<svg viewBox="0 0 512 512"
  xmlns="http://www.w3.org/2000/svg">
  <path d="m256 0c-140.61 0-256 115.39-256 256 0 119.99 84.195 228.98 196 256v-84.695c-11.078 2.4258-21.273 2.4961-32.551-0.82813-15.129-4.4648-27.422-14.543-36.547-29.91-5.8164-9.8125-16.125-20.453-26.879-19.672l-2.6367-29.883c23.254-1.9922 43.371 14.168 55.312 34.23 5.3047 8.9219 11.41 14.152 19.246 16.465 7.5742 2.2305 15.707 1.1602 25.184-2.1875 2.3789-18.973 11.07-26.074 17.637-36.074v-0.015624c-66.68-9.9453-93.254-45.32-103.8-73.242-13.977-37.074-6.4766-83.391 18.238-112.66 0.48047-0.57031 1.3477-2.0625 1.0117-3.1055-11.332-34.23 2.4766-62.547 2.9844-65.551 13.078 3.8672 15.203-3.8906 56.809 21.387l7.1914 4.3203c3.0078 1.793 2.0625 0.76953 5.0703 0.54297 17.371-4.7188 35.684-7.3242 53.727-7.5586 18.18 0.23438 36.375 2.8398 54.465 7.75l2.3281 0.23438c-0.20312-0.03125 0.63281-0.14844 2.0352-0.98438 51.973-31.48 50.105-21.191 64.043-25.723 0.50391 3.0078 14.129 31.785 2.918 65.582-1.5117 4.6562 45.059 47.301 19.246 115.75-10.547 27.934-37.117 63.309-103.8 73.254v0.015624c8.5469 13.027 18.816 19.957 18.762 46.832v105.72c111.81-27.016 196-136.01 196-256 0.003906-140.61-115.39-256-256-256z"/>
</svg>
