<svg version="1" xmlns="http://www.w3.org/2000/svg" width="933.333" height="933.333" viewBox="0 0 700.000000 700.000000"><path d="M.9 123.9c0 28.9-.1 154.5-.2 279L.5 629.4H71l70.5.1.1-30.7c.1-17-.2-30.8-.5-30.9-.3-.1-16.3-.2-35.6-.3l-35-.1V378c0-104.2.1-201.9.3-217.1l.3-27.6 33.2.2c18.3 0 34.1-.1 35.3-.3 2.1-.4 2.1-.7 2.1-31V71.5l-70.4-.1H1l-.1 52.5zM558.3 102.2c0 27.4.2 30.8 1.6 30.9.9.1 16.9.2 35.6.3l34 .1-.2 187c-.1 102.8-.2 200.5-.2 217.1l-.1 30-33.7-.1c-18.6 0-34.5.1-35.4.3-1.3.3-1.5 4-1.6 30.8-.1 22 .2 30.4 1.1 30.5.6 0 32.3.2 70.4.3l69.2.2.1-55c0-30.3.2-155.8.4-278.9.3-123 .1-223.7-.3-223.8-.4 0-32.2-.2-70.8-.3l-70.1-.1v30.7zM195.7 196.4c-.4 1.2-.6 29.1-.6 132.6-.1 38.8.1 72.1.3 74 1.6 15.7 7.2 34.4 14.7 49.2 3.3 6.6 12.8 20.9 16 24.2 1.6 1.7 2.9 3.3 2.9 3.7 0 .4 3.5 3.5 7.8 7 21.8 17.6 46.2 27.8 73 30.6 12.7 1.3 39 .4 48.8-1.7 15.3-3.2 36.4-10.7 42.4-15 1.5-1.1 3.1-2 3.4-2 1.7 0 14-9.5 21-16.2 4.4-4.2 8.2-7.6 8.3-7.4.2.2.4 8.9.4 19.5 0 17.2.2 19.1 1.7 19.2 7.7.5 66 .3 67.2-.2 1.4-.6 1.6-18.6 1.8-159.3.2-87.2-.1-158.7-.5-158.7-.4-.1-16.4-.2-35.4-.3l-34.6-.1-.1 33.5c-.1 18.4-.2 58-.2 88-.1 60.1-.4 63.1-6.4 79-8.1 21.7-20.3 35.5-39.5 45-13.7 6.8-21.5 8.4-41.1 8.3-16.7 0-26.2-2.3-38-9.2-13.6-7.8-21.7-17.8-28.4-34.5-6.1-15.2-5.9-12.2-6-115.6l-.1-94.5h-39.2c-26.6-.1-39.4.2-39.6.9z"/></svg>